<mxfile host="app.diagrams.net" modified="2022-12-01T18:25:20.078Z" agent="5.0 (Windows NT 10.0; Win64; x64) AppleWebKit/537.36 (KHTML, like Gecko) Chrome/107.0.0.0 Safari/537.36" etag="LYrTX_vLB2snMuEIxe9O" version="20.6.0" type="github">
  <diagram id="uutzl7AFgTpNWzsJFiEo" name="Страница 1">
    <mxGraphModel dx="716" dy="377" grid="1" gridSize="10" guides="1" tooltips="1" connect="1" arrows="1" fold="1" page="1" pageScale="1" pageWidth="827" pageHeight="1169" math="0" shadow="0">
      <root>
        <mxCell id="0" />
        <mxCell id="1" parent="0" />
        <mxCell id="DxMs9hnSmxFhZr19seSd-1" value="" style="rounded=1;whiteSpace=wrap;html=1;fillColor=#dae8fc;strokeColor=#6c8ebf;fontFamily=Times New Roman;" parent="1" vertex="1">
          <mxGeometry x="280" y="20" width="240" height="130" as="geometry" />
        </mxCell>
        <mxCell id="DxMs9hnSmxFhZr19seSd-8" value="&lt;b&gt;R01.TEST&lt;/b&gt;" style="text;html=1;strokeColor=none;fillColor=none;align=center;verticalAlign=middle;whiteSpace=wrap;rounded=0;fontFamily=Times New Roman;" parent="1" vertex="1">
          <mxGeometry x="367.5" width="52.5" height="20" as="geometry" />
        </mxCell>
        <mxCell id="DxMs9hnSmxFhZr19seSd-12" value="" style="endArrow=classic;html=1;rounded=0;labelBackgroundColor=#3333FF;fontFamily=Times New Roman;exitX=0.5;exitY=1;exitDx=0;exitDy=0;" parent="1" source="DxMs9hnSmxFhZr19seSd-1" edge="1">
          <mxGeometry width="50" height="50" relative="1" as="geometry">
            <mxPoint x="390" y="250" as="sourcePoint" />
            <mxPoint x="400" y="230" as="targetPoint" />
          </mxGeometry>
        </mxCell>
        <mxCell id="DxMs9hnSmxFhZr19seSd-13" value="" style="rounded=1;whiteSpace=wrap;html=1;fontFamily=Times New Roman;fillColor=#dae8fc;strokeColor=#6c8ebf;" parent="1" vertex="1">
          <mxGeometry x="270" y="230" width="260" height="140" as="geometry" />
        </mxCell>
        <mxCell id="DxMs9hnSmxFhZr19seSd-15" value="&lt;b&gt;SW01.L3.01.TEST&lt;/b&gt;" style="text;html=1;strokeColor=none;fillColor=none;align=center;verticalAlign=middle;whiteSpace=wrap;rounded=0;fontFamily=Times New Roman;" parent="1" vertex="1">
          <mxGeometry x="280" y="210" width="115" height="20" as="geometry" />
        </mxCell>
        <mxCell id="DxMs9hnSmxFhZr19seSd-16" value="Ether 2" style="text;html=1;strokeColor=none;fillColor=none;align=center;verticalAlign=middle;whiteSpace=wrap;rounded=0;fontFamily=Times New Roman;" parent="1" vertex="1">
          <mxGeometry x="405" y="150" width="50" height="20" as="geometry" />
        </mxCell>
        <mxCell id="DxMs9hnSmxFhZr19seSd-17" value="Ether 2" style="text;html=1;strokeColor=none;fillColor=none;align=center;verticalAlign=middle;whiteSpace=wrap;rounded=0;fontFamily=Times New Roman;" parent="1" vertex="1">
          <mxGeometry x="405" y="210" width="50" height="10" as="geometry" />
        </mxCell>
        <mxCell id="DxMs9hnSmxFhZr19seSd-18" value="" style="rounded=1;whiteSpace=wrap;html=1;fontFamily=Times New Roman;fillColor=#dae8fc;strokeColor=#6c8ebf;" parent="1" vertex="1">
          <mxGeometry x="35" y="420" width="245" height="130" as="geometry" />
        </mxCell>
        <mxCell id="DxMs9hnSmxFhZr19seSd-19" value="&lt;b&gt;SW02.L3.01.TEST&lt;/b&gt;" style="text;html=1;strokeColor=none;fillColor=none;align=center;verticalAlign=middle;whiteSpace=wrap;rounded=0;fontFamily=Times New Roman;" parent="1" vertex="1">
          <mxGeometry x="36.17" y="430" width="103.83" height="20" as="geometry" />
        </mxCell>
        <mxCell id="DxMs9hnSmxFhZr19seSd-20" value="" style="rounded=1;whiteSpace=wrap;html=1;fontFamily=Times New Roman;fillColor=#dae8fc;strokeColor=#6c8ebf;" parent="1" vertex="1">
          <mxGeometry x="520" y="420" width="245" height="130" as="geometry" />
        </mxCell>
        <mxCell id="DxMs9hnSmxFhZr19seSd-21" value="&lt;b&gt;SW02.L3.02.TEST&lt;/b&gt;" style="text;html=1;strokeColor=none;fillColor=none;align=center;verticalAlign=middle;whiteSpace=wrap;rounded=0;fontFamily=Times New Roman;" parent="1" vertex="1">
          <mxGeometry x="655" y="420" width="108.83" height="20" as="geometry" />
        </mxCell>
        <mxCell id="DxMs9hnSmxFhZr19seSd-22" value="" style="endArrow=classic;html=1;rounded=0;labelBackgroundColor=#3333FF;fontFamily=Times New Roman;exitX=0.25;exitY=1;exitDx=0;exitDy=0;entryX=0.5;entryY=0;entryDx=0;entryDy=0;" parent="1" source="DxMs9hnSmxFhZr19seSd-13" target="DxMs9hnSmxFhZr19seSd-18" edge="1">
          <mxGeometry width="50" height="50" relative="1" as="geometry">
            <mxPoint x="370" y="400" as="sourcePoint" />
            <mxPoint x="420" y="350" as="targetPoint" />
          </mxGeometry>
        </mxCell>
        <mxCell id="DxMs9hnSmxFhZr19seSd-23" value="" style="endArrow=classic;html=1;rounded=0;labelBackgroundColor=#3333FF;fontFamily=Times New Roman;entryX=0.5;entryY=0;entryDx=0;entryDy=0;exitX=0.75;exitY=1;exitDx=0;exitDy=0;" parent="1" source="DxMs9hnSmxFhZr19seSd-13" target="DxMs9hnSmxFhZr19seSd-20" edge="1">
          <mxGeometry width="50" height="50" relative="1" as="geometry">
            <mxPoint x="440" y="470" as="sourcePoint" />
            <mxPoint x="420" y="350" as="targetPoint" />
          </mxGeometry>
        </mxCell>
        <mxCell id="DxMs9hnSmxFhZr19seSd-24" value="" style="endArrow=classic;html=1;rounded=0;labelBackgroundColor=#3333FF;fontFamily=Times New Roman;" parent="1" edge="1">
          <mxGeometry width="50" height="50" relative="1" as="geometry">
            <mxPoint x="160" y="550" as="sourcePoint" />
            <mxPoint x="160" y="640" as="targetPoint" />
          </mxGeometry>
        </mxCell>
        <mxCell id="DxMs9hnSmxFhZr19seSd-25" value="" style="endArrow=classic;html=1;rounded=0;labelBackgroundColor=#3333FF;fontFamily=Times New Roman;exitX=0.5;exitY=1;exitDx=0;exitDy=0;" parent="1" source="DxMs9hnSmxFhZr19seSd-20" edge="1">
          <mxGeometry width="50" height="50" relative="1" as="geometry">
            <mxPoint x="370" y="550" as="sourcePoint" />
            <mxPoint x="643" y="640" as="targetPoint" />
          </mxGeometry>
        </mxCell>
        <mxCell id="DxMs9hnSmxFhZr19seSd-28" value="" style="shape=image;verticalLabelPosition=bottom;labelBackgroundColor=default;verticalAlign=top;aspect=fixed;imageAspect=0;image=https://cdn-icons-png.flaticon.com/512/130/130258.png;clipPath=inset(0% 4.67% 27% 1.67%);" parent="1" vertex="1">
          <mxGeometry x="106.17" y="660" width="102.65" height="80" as="geometry" />
        </mxCell>
        <mxCell id="DxMs9hnSmxFhZr19seSd-29" value="" style="shape=image;verticalLabelPosition=bottom;labelBackgroundColor=default;verticalAlign=top;aspect=fixed;imageAspect=0;image=https://cdn-icons-png.flaticon.com/512/130/130258.png;clipPath=inset(0% 4.67% 27% 1.67%);" parent="1" vertex="1">
          <mxGeometry x="591.17" y="660" width="102.65" height="80" as="geometry" />
        </mxCell>
        <mxCell id="DxMs9hnSmxFhZr19seSd-30" value="&lt;b&gt;PC 1&lt;/b&gt;" style="text;html=1;strokeColor=none;fillColor=none;align=center;verticalAlign=middle;whiteSpace=wrap;rounded=0;fontFamily=Times New Roman;" parent="1" vertex="1">
          <mxGeometry x="208.82" y="660" width="60" height="30" as="geometry" />
        </mxCell>
        <mxCell id="DxMs9hnSmxFhZr19seSd-31" value="&lt;b&gt;PC 2&lt;/b&gt;" style="text;html=1;strokeColor=none;fillColor=none;align=center;verticalAlign=middle;whiteSpace=wrap;rounded=0;fontFamily=Times New Roman;" parent="1" vertex="1">
          <mxGeometry x="693.8199999999999" y="660" width="60" height="30" as="geometry" />
        </mxCell>
        <mxCell id="DxMs9hnSmxFhZr19seSd-32" value="Ether 3" style="text;html=1;strokeColor=none;fillColor=none;align=center;verticalAlign=middle;whiteSpace=wrap;rounded=0;fontFamily=Times New Roman;" parent="1" vertex="1">
          <mxGeometry x="315" y="370" width="60" height="30" as="geometry" />
        </mxCell>
        <mxCell id="DxMs9hnSmxFhZr19seSd-33" value="Ether 4" style="text;html=1;strokeColor=none;fillColor=none;align=center;verticalAlign=middle;whiteSpace=wrap;rounded=0;fontFamily=Times New Roman;" parent="1" vertex="1">
          <mxGeometry x="420" y="370" width="60" height="30" as="geometry" />
        </mxCell>
        <mxCell id="DxMs9hnSmxFhZr19seSd-34" value="Ether 2" style="text;html=1;strokeColor=none;fillColor=none;align=center;verticalAlign=middle;whiteSpace=wrap;rounded=0;fontFamily=Times New Roman;" parent="1" vertex="1">
          <mxGeometry x="106.17000000000002" y="390" width="60" height="30" as="geometry" />
        </mxCell>
        <mxCell id="DxMs9hnSmxFhZr19seSd-35" value="Ether 2" style="text;html=1;strokeColor=none;fillColor=none;align=center;verticalAlign=middle;whiteSpace=wrap;rounded=0;fontFamily=Times New Roman;" parent="1" vertex="1">
          <mxGeometry x="640" y="390" width="60" height="30" as="geometry" />
        </mxCell>
        <mxCell id="DxMs9hnSmxFhZr19seSd-36" value="Ether 3" style="text;html=1;strokeColor=none;fillColor=none;align=center;verticalAlign=middle;whiteSpace=wrap;rounded=0;fontFamily=Times New Roman;" parent="1" vertex="1">
          <mxGeometry x="100" y="550" width="60" height="30" as="geometry" />
        </mxCell>
        <mxCell id="DxMs9hnSmxFhZr19seSd-37" value="Ether 3" style="text;html=1;strokeColor=none;fillColor=none;align=center;verticalAlign=middle;whiteSpace=wrap;rounded=0;fontFamily=Times New Roman;" parent="1" vertex="1">
          <mxGeometry x="655" y="550" width="60" height="30" as="geometry" />
        </mxCell>
        <mxCell id="piB4D8JbBcEkrlLDAygv-1" value="&lt;font style=&quot;font-size: 10px;&quot;&gt;DHCP server 1&lt;/font&gt;" style="text;html=1;strokeColor=none;fillColor=none;align=center;verticalAlign=middle;whiteSpace=wrap;rounded=0;" vertex="1" parent="1">
          <mxGeometry x="295" y="40" width="80" height="10" as="geometry" />
        </mxCell>
        <mxCell id="piB4D8JbBcEkrlLDAygv-2" value="&lt;font style=&quot;font-size: 10px;&quot;&gt;DHCP server 2&lt;/font&gt;" style="text;html=1;strokeColor=none;fillColor=none;align=center;verticalAlign=middle;whiteSpace=wrap;rounded=0;" vertex="1" parent="1">
          <mxGeometry x="425" y="40" width="80" height="10" as="geometry" />
        </mxCell>
        <mxCell id="piB4D8JbBcEkrlLDAygv-3" value="ip 192.168.10.0&lt;br&gt;gateway 192.168.10.1" style="text;html=1;strokeColor=none;fillColor=none;align=center;verticalAlign=middle;whiteSpace=wrap;rounded=0;fontSize=10;" vertex="1" parent="1">
          <mxGeometry x="280" y="70" width="110" height="20" as="geometry" />
        </mxCell>
        <mxCell id="piB4D8JbBcEkrlLDAygv-4" value="ip 192.168.20.0&lt;br&gt;gateway 192.168.20.1" style="text;html=1;strokeColor=none;fillColor=none;align=center;verticalAlign=middle;whiteSpace=wrap;rounded=0;fontSize=10;" vertex="1" parent="1">
          <mxGeometry x="410" y="70" width="110" height="20" as="geometry" />
        </mxCell>
        <mxCell id="piB4D8JbBcEkrlLDAygv-5" value="&lt;font style=&quot;font-size: 8px;&quot;&gt;&lt;b&gt;VLAN10&lt;/b&gt;&lt;/font&gt;" style="text;html=1;strokeColor=none;fillColor=none;align=center;verticalAlign=middle;whiteSpace=wrap;rounded=0;fontSize=10;" vertex="1" parent="1">
          <mxGeometry x="305" y="110" width="55" height="20" as="geometry" />
        </mxCell>
        <mxCell id="piB4D8JbBcEkrlLDAygv-6" value="&lt;font style=&quot;font-size: 8px;&quot;&gt;&lt;b&gt;VLAN20&lt;/b&gt;&lt;/font&gt;" style="text;html=1;strokeColor=none;fillColor=none;align=center;verticalAlign=middle;whiteSpace=wrap;rounded=0;fontSize=10;" vertex="1" parent="1">
          <mxGeometry x="437.5" y="110" width="55" height="20" as="geometry" />
        </mxCell>
        <mxCell id="piB4D8JbBcEkrlLDAygv-8" value="&lt;font style=&quot;font-size: 8px;&quot;&gt;VLAN10&lt;/font&gt;" style="text;html=1;strokeColor=none;fillColor=none;align=center;verticalAlign=middle;whiteSpace=wrap;rounded=0;fontSize=10;" vertex="1" parent="1">
          <mxGeometry x="295" y="240" width="55" height="20" as="geometry" />
        </mxCell>
        <mxCell id="piB4D8JbBcEkrlLDAygv-9" value="&lt;font style=&quot;font-size: 8px;&quot;&gt;VLAN20&lt;/font&gt;" style="text;html=1;strokeColor=none;fillColor=none;align=center;verticalAlign=middle;whiteSpace=wrap;rounded=0;fontSize=10;" vertex="1" parent="1">
          <mxGeometry x="437.5" y="240" width="55" height="20" as="geometry" />
        </mxCell>
        <mxCell id="piB4D8JbBcEkrlLDAygv-10" value="&lt;font style=&quot;font-size: 8px;&quot;&gt;VLAN203&lt;/font&gt;" style="text;html=1;strokeColor=none;fillColor=none;align=center;verticalAlign=middle;whiteSpace=wrap;rounded=0;fontSize=10;" vertex="1" parent="1">
          <mxGeometry x="437.5" y="330" width="55" height="20" as="geometry" />
        </mxCell>
        <mxCell id="piB4D8JbBcEkrlLDAygv-11" value="&lt;font style=&quot;font-size: 8px;&quot;&gt;VLAN103&lt;/font&gt;" style="text;html=1;strokeColor=none;fillColor=none;align=center;verticalAlign=middle;whiteSpace=wrap;rounded=0;fontSize=10;" vertex="1" parent="1">
          <mxGeometry x="295" y="330" width="55" height="20" as="geometry" />
        </mxCell>
        <mxCell id="piB4D8JbBcEkrlLDAygv-12" value="&lt;font style=&quot;font-size: 10px;&quot;&gt;Brige10&lt;/font&gt;" style="text;html=1;strokeColor=none;fillColor=none;align=center;verticalAlign=middle;whiteSpace=wrap;rounded=0;fontSize=10;" vertex="1" parent="1">
          <mxGeometry x="295" y="285" width="55" height="20" as="geometry" />
        </mxCell>
        <mxCell id="piB4D8JbBcEkrlLDAygv-13" value="&lt;font style=&quot;font-size: 10px;&quot;&gt;Brige20&lt;/font&gt;" style="text;html=1;strokeColor=none;fillColor=none;align=center;verticalAlign=middle;whiteSpace=wrap;rounded=0;fontSize=10;" vertex="1" parent="1">
          <mxGeometry x="437.5" y="285" width="55" height="20" as="geometry" />
        </mxCell>
        <mxCell id="piB4D8JbBcEkrlLDAygv-18" value="" style="endArrow=classic;startArrow=classic;html=1;rounded=0;fontSize=10;exitX=0.5;exitY=0;exitDx=0;exitDy=0;entryX=0.5;entryY=1;entryDx=0;entryDy=0;" edge="1" parent="1" source="piB4D8JbBcEkrlLDAygv-12" target="piB4D8JbBcEkrlLDAygv-8">
          <mxGeometry width="50" height="50" relative="1" as="geometry">
            <mxPoint x="320" y="290" as="sourcePoint" />
            <mxPoint x="320" y="270" as="targetPoint" />
          </mxGeometry>
        </mxCell>
        <mxCell id="piB4D8JbBcEkrlLDAygv-21" value="" style="endArrow=classic;startArrow=classic;html=1;rounded=0;fontSize=10;entryX=0.5;entryY=1;entryDx=0;entryDy=0;exitX=0.5;exitY=0;exitDx=0;exitDy=0;" edge="1" parent="1" source="piB4D8JbBcEkrlLDAygv-11" target="piB4D8JbBcEkrlLDAygv-12">
          <mxGeometry width="50" height="50" relative="1" as="geometry">
            <mxPoint x="320" y="320" as="sourcePoint" />
            <mxPoint x="430" y="210" as="targetPoint" />
          </mxGeometry>
        </mxCell>
        <mxCell id="piB4D8JbBcEkrlLDAygv-25" value="" style="endArrow=classic;startArrow=classic;html=1;rounded=0;fontSize=10;entryX=0.5;entryY=1;entryDx=0;entryDy=0;exitX=0.5;exitY=0;exitDx=0;exitDy=0;" edge="1" parent="1" source="piB4D8JbBcEkrlLDAygv-13" target="piB4D8JbBcEkrlLDAygv-9">
          <mxGeometry width="50" height="50" relative="1" as="geometry">
            <mxPoint x="380" y="260" as="sourcePoint" />
            <mxPoint x="430" y="210" as="targetPoint" />
          </mxGeometry>
        </mxCell>
        <mxCell id="piB4D8JbBcEkrlLDAygv-26" value="" style="endArrow=classic;startArrow=classic;html=1;rounded=0;fontSize=10;exitX=0.5;exitY=1;exitDx=0;exitDy=0;entryX=0.5;entryY=0;entryDx=0;entryDy=0;" edge="1" parent="1" source="piB4D8JbBcEkrlLDAygv-13" target="piB4D8JbBcEkrlLDAygv-10">
          <mxGeometry width="50" height="50" relative="1" as="geometry">
            <mxPoint x="380" y="260" as="sourcePoint" />
            <mxPoint x="430" y="210" as="targetPoint" />
          </mxGeometry>
        </mxCell>
        <mxCell id="piB4D8JbBcEkrlLDAygv-27" value="&lt;font style=&quot;font-size: 8px;&quot;&gt;VLAN10&lt;/font&gt;" style="text;html=1;strokeColor=none;fillColor=none;align=center;verticalAlign=middle;whiteSpace=wrap;rounded=0;fontSize=10;" vertex="1" parent="1">
          <mxGeometry x="295" y="240" width="55" height="20" as="geometry" />
        </mxCell>
        <mxCell id="piB4D8JbBcEkrlLDAygv-28" value="&lt;font style=&quot;font-size: 8px;&quot;&gt;VLAN20&lt;/font&gt;" style="text;html=1;strokeColor=none;fillColor=none;align=center;verticalAlign=middle;whiteSpace=wrap;rounded=0;fontSize=10;" vertex="1" parent="1">
          <mxGeometry x="437.5" y="240" width="55" height="20" as="geometry" />
        </mxCell>
        <mxCell id="piB4D8JbBcEkrlLDAygv-29" value="&lt;font style=&quot;font-size: 10px;&quot;&gt;Brige10&lt;/font&gt;" style="text;html=1;strokeColor=none;fillColor=none;align=center;verticalAlign=middle;whiteSpace=wrap;rounded=0;fontSize=10;" vertex="1" parent="1">
          <mxGeometry x="295" y="285" width="55" height="20" as="geometry" />
        </mxCell>
        <mxCell id="piB4D8JbBcEkrlLDAygv-30" value="&lt;font style=&quot;font-size: 10px;&quot;&gt;Brige20&lt;/font&gt;" style="text;html=1;strokeColor=none;fillColor=none;align=center;verticalAlign=middle;whiteSpace=wrap;rounded=0;fontSize=10;" vertex="1" parent="1">
          <mxGeometry x="615" y="497.5" width="55" height="20" as="geometry" />
        </mxCell>
        <mxCell id="piB4D8JbBcEkrlLDAygv-31" value="&lt;font style=&quot;font-size: 10px;&quot;&gt;VLAN10&lt;/font&gt;" style="text;html=1;strokeColor=none;fillColor=none;align=center;verticalAlign=middle;whiteSpace=wrap;rounded=0;fontSize=10;" vertex="1" parent="1">
          <mxGeometry x="130" y="452.5" width="55" height="20" as="geometry" />
        </mxCell>
        <mxCell id="piB4D8JbBcEkrlLDAygv-32" value="&lt;font style=&quot;font-size: 10px;&quot;&gt;VLAN20&lt;/font&gt;" style="text;html=1;strokeColor=none;fillColor=none;align=center;verticalAlign=middle;whiteSpace=wrap;rounded=0;fontSize=10;" vertex="1" parent="1">
          <mxGeometry x="615" y="450" width="55" height="20" as="geometry" />
        </mxCell>
        <mxCell id="piB4D8JbBcEkrlLDAygv-33" value="&lt;font style=&quot;font-size: 10px;&quot;&gt;Brige10&lt;/font&gt;" style="text;html=1;strokeColor=none;fillColor=none;align=center;verticalAlign=middle;whiteSpace=wrap;rounded=0;fontSize=10;" vertex="1" parent="1">
          <mxGeometry x="130" y="497.5" width="55" height="20" as="geometry" />
        </mxCell>
        <mxCell id="piB4D8JbBcEkrlLDAygv-35" value="" style="endArrow=classic;startArrow=classic;html=1;rounded=0;fontSize=10;exitX=0.5;exitY=0;exitDx=0;exitDy=0;entryX=0.5;entryY=1;entryDx=0;entryDy=0;" edge="1" parent="1" source="piB4D8JbBcEkrlLDAygv-33" target="piB4D8JbBcEkrlLDAygv-31">
          <mxGeometry width="50" height="50" relative="1" as="geometry">
            <mxPoint x="332.5" y="295" as="sourcePoint" />
            <mxPoint x="332.5" y="270" as="targetPoint" />
          </mxGeometry>
        </mxCell>
        <mxCell id="piB4D8JbBcEkrlLDAygv-36" value="" style="endArrow=classic;startArrow=classic;html=1;rounded=0;fontSize=10;exitX=0.5;exitY=0;exitDx=0;exitDy=0;entryX=0.5;entryY=1;entryDx=0;entryDy=0;" edge="1" parent="1" source="piB4D8JbBcEkrlLDAygv-30" target="piB4D8JbBcEkrlLDAygv-32">
          <mxGeometry width="50" height="50" relative="1" as="geometry">
            <mxPoint x="342.5" y="305" as="sourcePoint" />
            <mxPoint x="342.5" y="280" as="targetPoint" />
          </mxGeometry>
        </mxCell>
        <mxCell id="piB4D8JbBcEkrlLDAygv-37" value="" style="endArrow=classic;startArrow=classic;html=1;rounded=0;fontSize=8;exitX=1;exitY=0.5;exitDx=0;exitDy=0;entryX=0.5;entryY=0;entryDx=0;entryDy=0;" edge="1" parent="1" source="piB4D8JbBcEkrlLDAygv-27" target="DxMs9hnSmxFhZr19seSd-13">
          <mxGeometry width="50" height="50" relative="1" as="geometry">
            <mxPoint x="370" y="400" as="sourcePoint" />
            <mxPoint x="420" y="350" as="targetPoint" />
          </mxGeometry>
        </mxCell>
        <mxCell id="piB4D8JbBcEkrlLDAygv-38" value="" style="endArrow=classic;startArrow=classic;html=1;rounded=0;fontSize=8;entryX=0;entryY=0.75;entryDx=0;entryDy=0;exitX=0.5;exitY=0;exitDx=0;exitDy=0;" edge="1" parent="1" source="DxMs9hnSmxFhZr19seSd-13" target="piB4D8JbBcEkrlLDAygv-28">
          <mxGeometry width="50" height="50" relative="1" as="geometry">
            <mxPoint x="370" y="330" as="sourcePoint" />
            <mxPoint x="420" y="280" as="targetPoint" />
          </mxGeometry>
        </mxCell>
        <mxCell id="piB4D8JbBcEkrlLDAygv-39" value="" style="endArrow=classic;startArrow=classic;html=1;rounded=0;fontSize=8;exitX=0.5;exitY=1;exitDx=0;exitDy=0;entryX=0.25;entryY=1;entryDx=0;entryDy=0;" edge="1" parent="1" source="piB4D8JbBcEkrlLDAygv-11" target="DxMs9hnSmxFhZr19seSd-13">
          <mxGeometry width="50" height="50" relative="1" as="geometry">
            <mxPoint x="370" y="330" as="sourcePoint" />
            <mxPoint x="420" y="280" as="targetPoint" />
          </mxGeometry>
        </mxCell>
        <mxCell id="piB4D8JbBcEkrlLDAygv-40" value="" style="endArrow=classic;startArrow=classic;html=1;rounded=0;fontSize=8;exitX=0.75;exitY=0;exitDx=0;exitDy=0;entryX=0.75;entryY=1;entryDx=0;entryDy=0;" edge="1" parent="1" source="DxMs9hnSmxFhZr19seSd-33" target="piB4D8JbBcEkrlLDAygv-10">
          <mxGeometry width="50" height="50" relative="1" as="geometry">
            <mxPoint x="370" y="330" as="sourcePoint" />
            <mxPoint x="420" y="280" as="targetPoint" />
          </mxGeometry>
        </mxCell>
        <mxCell id="piB4D8JbBcEkrlLDAygv-42" value="" style="endArrow=classic;startArrow=classic;html=1;rounded=0;fontSize=8;exitX=0.5;exitY=0;exitDx=0;exitDy=0;entryX=0.5;entryY=0;entryDx=0;entryDy=0;" edge="1" parent="1" source="piB4D8JbBcEkrlLDAygv-31" target="DxMs9hnSmxFhZr19seSd-18">
          <mxGeometry width="50" height="50" relative="1" as="geometry">
            <mxPoint x="370" y="470" as="sourcePoint" />
            <mxPoint x="420" y="420" as="targetPoint" />
          </mxGeometry>
        </mxCell>
        <mxCell id="piB4D8JbBcEkrlLDAygv-44" value="" style="endArrow=classic;startArrow=classic;html=1;rounded=0;fontSize=8;exitX=0.5;exitY=1;exitDx=0;exitDy=0;entryX=0.5;entryY=1;entryDx=0;entryDy=0;" edge="1" parent="1" source="piB4D8JbBcEkrlLDAygv-33" target="DxMs9hnSmxFhZr19seSd-18">
          <mxGeometry width="50" height="50" relative="1" as="geometry">
            <mxPoint x="370" y="470" as="sourcePoint" />
            <mxPoint x="420" y="420" as="targetPoint" />
          </mxGeometry>
        </mxCell>
        <mxCell id="piB4D8JbBcEkrlLDAygv-45" value="" style="endArrow=classic;startArrow=classic;html=1;rounded=0;fontSize=8;exitX=0.5;exitY=0;exitDx=0;exitDy=0;entryX=0;entryY=1;entryDx=0;entryDy=0;" edge="1" parent="1" source="piB4D8JbBcEkrlLDAygv-32" target="DxMs9hnSmxFhZr19seSd-35">
          <mxGeometry width="50" height="50" relative="1" as="geometry">
            <mxPoint x="620" y="470" as="sourcePoint" />
            <mxPoint x="670" y="420" as="targetPoint" />
          </mxGeometry>
        </mxCell>
        <mxCell id="piB4D8JbBcEkrlLDAygv-46" value="" style="endArrow=classic;startArrow=classic;html=1;rounded=0;fontSize=8;exitX=0.5;exitY=1;exitDx=0;exitDy=0;entryX=0.5;entryY=1;entryDx=0;entryDy=0;" edge="1" parent="1" source="DxMs9hnSmxFhZr19seSd-20" target="piB4D8JbBcEkrlLDAygv-30">
          <mxGeometry width="50" height="50" relative="1" as="geometry">
            <mxPoint x="620" y="470" as="sourcePoint" />
            <mxPoint x="670" y="420" as="targetPoint" />
          </mxGeometry>
        </mxCell>
      </root>
    </mxGraphModel>
  </diagram>
</mxfile>
